<?xml version="1.0" encoding="UTF-8"?>
<svg id="a" data-name="Layer 1" xmlns="http://www.w3.org/2000/svg" viewBox="0 0 145.93785 145.93785">
  <defs>
    <style>
      .b {
        stroke-width: .33px;
      }

      .b, .c {
        stroke: #000;
        stroke-miterlimit: 10;
      }

      .c {
        fill: none;
        stroke-width: 3px;
      }
    </style>
  </defs>
  <g>
    <g>
      <path d="M56.62947,122.12044c.02841.60579.40617.99793.94079.99793.39198,0,.62743-.16396.9124-.62016l.42764.24238c-.32791.57738-.76248.84106-1.36844.84106-.85561,0-1.44703-.64145-1.44703-1.56821,0-.90531.5987-1.53967,1.43976-1.53967s1.40442.62016,1.40442,1.54676v.09989h-2.30955ZM58.40441,121.69264c-.0928-.4633-.43491-.76264-.86981-.76264-.42762,0-.79814.3208-.86947.76264h1.73928Z"/>
      <path d="M61.77281,119.67548c-.24238-.38495-.4491-.51325-.81962-.51325-.44184,0-.78426.31364-.78426.73417,0,.20672.10004.37794.2995.51333.11394.07132.23513.14249.37052.19945l.1499.07132.1496.06407.1496.06423c.7628.335,1.07651.71278,1.07651,1.30453,0,.81962-.65582,1.46833-1.4969,1.46833-.76281,0-1.29018-.44199-1.47544-1.22595l.51317-.14265c.12814.57029.45605.86965.95501.86965.54883,0,.96952-.40634.96952-.93372,0-.29225-.12846-.51331-.39198-.67728-.12119-.07826-.25658-.1496-.41344-.21381l-.14265-.07116-.14265-.06423-.14234-.06423c-.68453-.30643-.96258-.64145-.96258-1.17608,0-.69148.57755-1.21892,1.3331-1.21892.53463,0,.94079.24947,1.22611.74133l-.42069.27087Z"/>
      <path d="M65.42682,121.42185c-.32791-.3563-.57029-.48476-.93386-.48476-.59175,0-1.04053.47056-1.04053,1.09072,0,.6129.44878,1.09057,1.01907,1.09057.3923,0,.63436-.1283.97678-.51333v.67002c-.36357.22818-.60595.3066-.94805.3066-.884,0-1.56822-.67712-1.56822-1.54675,0-.88383.68423-1.56113,1.58243-1.56113.3421,0,.60595.07843.91239.27806v.67001Z"/>
      <path d="M66.74477,119.41882c0,.19971-.1638.36351-.36357.36351-.19946,0-.36357-.1638-.36357-.36351,0-.19953.16411-.36349.36357-.36349.19977,0,.36357.16396.36357.36349ZM66.63084,123.49614h-.50622v-2.95828h.50622v2.95828Z"/>
      <path d="M67.8033,122.12044c.02839.60579.40617.99793.94079.99793.39198,0,.62741-.16396.9124-.62016l.42764.24238c-.32791.57738-.76248.84106-1.36844.84106-.85561,0-1.44703-.64145-1.44703-1.56821,0-.90531.5987-1.53967,1.43976-1.53967s1.40442.62016,1.40442,1.54676v.09989h-2.30955ZM69.57823,121.69264c-.09278-.4633-.4349-.76264-.86979-.76264-.42764,0-.79814.3208-.86947.76264h1.73926Z"/>
      <path d="M71.2667,120.53786v.35664c.25658-.31371.48476-.4278.85559-.4278.35632,0,.68423.15669.84801.40634.11426.18524.16412.40617.16412.7912v1.8319h-.50624v-1.74637c0-.60595-.16378-.82688-.62709-.82688-.51349,0-.7344.32791-.7344,1.09766v1.47558h-.50591v-2.95828h.50591Z"/>
      <path d="M76.26139,121.42185c-.32791-.3563-.57029-.48476-.93386-.48476-.59175,0-1.04053.47056-1.04053,1.09072,0,.6129.44878,1.09057,1.01907,1.09057.39229,0,.63436-.1283.97678-.51333v.67002c-.36357.22818-.60595.3066-.94807.3066-.884,0-1.56821-.67712-1.56821-1.54675,0-.88383.68421-1.56113,1.58241-1.56113.34211,0,.60595.07843.9124.27806v.67001Z"/>
      <path d="M77.28994,122.12044c.02872.60579.40649.99793.94112.99793.39198,0,.62709-.16396.9124-.62016l.42762.24238c-.32791.57738-.76281.84106-1.36876.84106-.85527,0-1.44702-.64145-1.44702-1.56821,0-.90531.59868-1.53967,1.44008-1.53967.84106,0,1.4041.62016,1.4041,1.54676v.09989h-2.30955ZM79.06486,121.69264c-.09246-.4633-.4349-.76264-.86947-.76264-.42796,0-.79847.3208-.86979.76264h1.73926Z"/>
      <path d="M82.71448,123.49614h-.53463v-4.75444h.53463v4.75444Z"/>
      <path d="M84.19053,120.53786v.35664c.25658-.31371.48476-.4278.85528-.4278.35632,0,.68423.15669.84833.40634.11394.18524.1638.40617.1638.7912v1.8319h-.50592v-1.74637c0-.60595-.16411-.82688-.62741-.82688-.51317,0-.73409.32791-.73409,1.09766v1.47558h-.50622v-2.95828h.50622Z"/>
      <path d="M88.06326,121.22934c-.10699-.19945-.23543-.29225-.40649-.29225-.19946,0-.36357.14265-.36357.32082,0,.17815.09278.27093.47781.42779.71263.2992.89094.48462.89094.93372,0,.54172-.44184.96225-1.00519.96225-.49897,0-.84801-.24947-1.04054-.75553l.4491-.18542c.17106.36357.3134.47767.5987.47767.27079,0,.47751-.19963.47751-.46347,0-.22802-.10699-.33486-.47751-.49171-.68422-.2995-.85527-.47056-.85527-.86254,0-.47749.3705-.82688.88367-.82688.34211,0,.61321.17833.79121.53463l-.42039.22092Z"/>
      <path d="M89.75962,123.49614h-.50622v-2.48772h-.30645v-.47056h.30645v-1.06909h.50622v1.06909h.52736v.47056h-.52736v2.48772Z"/>
      <path d="M91.31553,119.41882c0,.19971-.1638.36351-.36357.36351-.19946,0-.36357-.1638-.36357-.36351,0-.19953.16411-.36349.36357-.36349.19977,0,.36357.16396.36357.36349ZM91.2016,123.49614h-.50622v-2.95828h.50622v2.95828Z"/>
      <path d="M92.56657,123.49614h-.50622v-2.48772h-.30645v-.47056h.30645v-1.06909h.50622v1.06909h.52736v.47056h-.52736v2.48772Z"/>
      <path d="M94.00823,122.26293c0,.5987.19979.85544.67002.85544.4633,0,.66307-.25675.66307-.85544v-1.72508h.50592v1.7822c0,.43475-.07102.67002-.27079.89094-.21365.24238-.53463.37067-.8982.37067-.3705,0-.69148-.12828-.90513-.37067-.19979-.22092-.27079-.45619-.27079-.89094v-1.7822h.5059v1.72508Z"/>
      <path d="M97.19958,123.49614h-.5059v-2.48772h-.30677v-.47056h.30677v-1.06909h.5059v1.06909h.5277v.47056h-.5277v2.48772Z"/>
      <path d="M98.44336,122.12044c.02841.60579.40618.99793.94081.99793.39198,0,.62741-.16396.9124-.62016l.42762.24238c-.32791.57738-.76248.84106-1.36844.84106-.85559,0-1.44703-.64145-1.44703-1.56821,0-.90531.5987-1.53967,1.43978-1.53967s1.40442.62016,1.40442,1.54676v.09989h-2.30957ZM100.2183,121.69264c-.09278-.4633-.4349-.76264-.86979-.76264-.42764,0-.79816.3208-.86949.76264h1.73928Z"/>
    </g>
    <path d="M50.02015,122.26799c-.02217-.05681-.04828-.11141-.07834-.1638l3.81165-2.73437c.17713.19095.42931.31119.70971.31119.53463,0,.96952-.43482.96952-.96944s-.4349-.96952-.96952-.96952-.96952.4349-.96952.96952c0,.16726.04261.32482.11757.46227l-.00016-.00016-3.81064,2.73374c-.05405-.06139-.11426-.11709-.17959-.16648l1.16686-1.91631c-.00015-.00016-.00039-.00016-.00063-.00032.1447.06707.30527.10542.47507.10542.01727,0,.03463-.00032.05206-.00111.62316-.02841,1.10713-.55822,1.07881-1.18106-.01546-.34502-.18288-.64753-.43616-.84415.00008.00016.00023.00024.00039.00032l1.28126-2.10427c.07654.03101.16008.04822.24767.04822l.03023-.00071c.36333-.01642.6457-.32547.62946-.68896-.01587-.35331-.30519-.63017-.65874-.63017l-.03014.00071c-.36349.01648-.64596.32553-.62971.68911.00821.17855.08655.33715.20727.45076l-1.28354,2.10805h0c-.16199-.07701-.3452-.11686-.53889-.10778-.623.02833-1.10705.55806-1.07911,1.18106.01593.34976.18857.65511.4479.85116-.00039-.00031-.00078-.00047-.00118-.00078l-1.1659,1.91489c-.07385-.0355-.15165-.06342-.23283-.08331l.54638-3.78784c-.01396.00087-.02721.00419-.04141.00419-.03692,0-.07267-.00427-.10762-.01089.03518.00583.07076.01089.10762.01089.36388,0,.65992-.29603.65992-.65992s-.29604-.65992-.65992-.65992-.65992.29604-.65992.65992c0,.29406.19457.54078.46078.62584l-.54584,3.78396c-.01656-.00063-.03274-.00252-.04938-.00252-.0887,0-.17493.0101-.25817.02825l-.20483-.63593h-.00016c.20854-.11095.35237-.32807.35237-.58023,0-.36389-.29603-.65992-.65992-.65992s-.65992.29603-.65992.65992.29604.65991.65992.65991c.02611,0,.0509-.00473.07622-.00772l.20585.63909c-.22487.09925-.4132.2651-.54141.47229l-3.20854-1.57706c.03534-.10051.05562-.20812.05562-.32064,0-.53463-.4349-.96944-.96952-.96944s-.96952.43482-.96952.96944.4349.96952.96952.96952c.33596,0,.63231-.17185.80629-.43207l-.00016.00032,3.21021,1.57784c-.03456.09374-.05917.19237-.06951.29541l-1.26588-.00553c.00869.04261.01335.08679.01335.13192,0-.36389-.29604-.65992-.65992-.65992-.36373,0-.6596.29603-.6596.65992,0,.36373.29587.6596.6596.6596.32602,0,.59577-.23812.64871-.54914l1.26352.00553c.02524.25768.13184.49106.29288.67586l-1.04164,1.10917.00023.00016c-.08354-.06295-.17523-.11583-.27741-.1496-.09909-.03282-.20182-.04954-.30534-.04954-.41833,0-.78806.26715-.92021.66466-.0815.24569-.06234.50858.05397.73993.11621.23149.3156.40365.56137.48523.0991.03282.20182.04956.30534.04956.41858,0,.78837-.26717.92022-.66466.08134-.24586.06224-.50876-.05389-.74009-.05121-.10195-.1208-.18999-.20113-.26622.03314.03015.06454.06218.09264.09752l1.04266-1.11027c.1735.13302.38314.22123.6125.24443l.00095,1.80366c-.23671.04087-.43601.20812-.5138.44246-.05539.16728-.04229.34606.03684.50355.07907.15732.21477.27457.3818.32995.06746.02241.13745.03377.20806.03377.2846,0,.53629-.18162.62623-.45225.11424-.34526-.07354-.7194-.41888-.83413-.02548-.00852-.05168-.01388-.07787-.0191l-.00095-1.8076c.08222-.00805.16199-.02414.23852-.04765l1.20758,2.83424c-.19853.11629-.35546.30013-.43136.52989-.08173.24569-.06265.50843.05365.74009.11631.23133.31561.40365.56131.48523.09902.03283.20166.0494.30519.0494.41864,0,.78851-.26715.92037-.66482.16789-.50732-.10818-1.05694-.61542-1.22516-.0991-.03282-.20184-.04954-.30535-.04954-.09183,0-.18061.01498-.26573.03928l-1.20701-2.83282c.10792-.05903.20544-.13446.29026-.22218l.55942.43663c.00015-.00016.00023-.00047.00039-.00063-.03164.05555-.05997.11331-.08063.17579-.16821.50734.1077,1.05694.61502,1.22516.09902.03283.20168.0494.30511.0494.41849,0,.78829-.26715.92013-.66482.16782-.50732-.10801-1.05694-.6151-1.22516-.0991-.03282-.20182-.04954-.30534-.04954-.27056,0-.51941.11266-.69796.29887.00111-.00111.00189-.00238.00301-.00347l-.55403-.43238c.06572-.10256.11589-.2157.14832-.33643l3.50853.56523c0-.00031.00008-.00063,0-.00094.00805.26967.17951.51868.44981.60815.0673.02225.13712.03363.20759.03363.28499,0,.5366-.18179.62615-.45243.11432-.3451-.07346-.71908-.4188-.83381-.0673-.02225-.13712-.03361-.20751-.03361-.2801,0-.52729.1761-.62109.43931l-3.50562-.5646c.00158-.0254.00388-.0505.00388-.07622,0-.07023-.00727-.13855-.01871-.2056l1.92178-.53558c-.00016-.00032-.00024-.00079-.00039-.0011.14351.3563.4921.60878.89922.60878.53463,0,.96952-.4349.96952-.96952s-.4349-.96952-.96952-.96952-.96952.4349-.96952.96952c0,.0434.00386.08569.00939.12767,0-.00016-.00008-.00032-.00008-.00047l-1.92501.53652ZM54.46318,118.06521c.3564,0,.64635.28995.64635.64635s-.28995.64635-.64635.64635-.64635-.28995-.64635-.64635.28997-.64635.64635-.64635ZM53.68159,119.28279c-.00268-.00362-.00553-.00717-.00813-.01081.0026.00364.00545.00719.00813.01081ZM53.48711,114.85098c.18028,0,.32783.14123.33588.32151.00829.1855-.13578.34323-.3212.35158l-.01563.0004c-.18012,0-.32775-.14132-.33604-.32153-.00827-.18542.13596-.34321.33699-.35197ZM50.45584,118.83511c-.01996-.44491.32586-.8234.77085-.8436.01247-.00055.02485-.00086.03717-.00086.43276,0,.78687.33887.80629.77148.0202.44491-.32547.8234-.77063.8436-.44744.02193-.82348-.32563-.84368-.77063ZM50.68316,119.76938c-.00166-.00095-.00339-.00189-.00514-.00301.00175.00111.00347.00205.00514.00301ZM49.34919,117.08811c0-.18565.15108-.33675.33675-.33675.18565,0,.33675.1511.33675.33675s-.1511.33675-.33675.33675c-.18566,0-.33675-.1511-.33675-.33675ZM47.78412,120.30748c0-.18574.1511-.33675.33675-.33675.18566,0,.33675.151.33675.33675,0,.18573-.15108.33673-.33675.33673-.18565,0-.33675-.151-.33675-.33673ZM48.31828,120.93394c-.00055.00016-.0011.00032-.00173.00047.00063-.00015.00118-.00031.00173-.00047ZM43.73907,120.8197c-.35638,0-.64635-.28989-.64635-.64635,0-.35632.28997-.64627.64635-.64627s.64635.28995.64635.64627c0,.35646-.28995.64635-.64635.64635ZM44.60823,120.6002c-.00165.00347-.00323.00693-.00488.01026.00165-.00333.00323-.00679.00488-.01026ZM45.77344,123.0472c-.1855,0-.33643-.15086-.33643-.33643,0-.18573.15092-.33675.33643-.33675.18565,0,.33675.15102.33675.33675,0,.18557-.1511.33643-.33675.33643ZM46.9683,125.5859c-.08789.26494-.33437.44311-.61345.44311-.06887,0-.13745-.01121-.20355-.03314-.33841-.11221-.52248-.47861-.41045-.81661.08813-.26512.3347-.44327.61353-.44327.06897,0,.13745.0112.20371.03314.16388.05428.29684.169.37424.32334.07747.15417.09018.32948.03597.49344ZM51.14836,126.92119c.33815.11221.52223.47862.41035.81678-.08789.26512-.33454.44327-.6136.44327-.06888,0-.1373-.01105-.20341-.03298-.1638-.05428-.29676-.16933-.37424-.32364-.07755-.15433-.09025-.32933-.03581-.49329.08765-.2651.33405-.44325.61305-.44325.06888,0,.13745.0112.20365.03313ZM50.55929,126.64758c.00417-.00175.00843-.00347.0127-.0052-.00427.00173-.00853.00346-.0127.0052ZM50.54816,124.26242c.08766-.2651.33407-.44325.61306-.44325.06887,0,.13743.0112.20363.03314.33801.11219.52193.47861.41004.81676-.08789.26512-.33445.44327-.61337.44327-.0688,0-.1372-.01105-.20333-.03298-.33825-.11219-.52215-.47861-.41004-.81694ZM53.90646,123.46301c.04584-.13824.17437-.23102.31986-.23102.03582,0,.07141.00583.10573.01719.17626.05854.27213.24933.21381.42543-.05696.17217-.2509.27127-.42551.21367-.17602-.05822-.27197-.24917-.21389-.42527ZM53.57414,123.47658c.00474-.03834.01286-.07685.02548-.1152-.01254.03818-.02012.07669-.02548.1152ZM49.20126,126.47225c-.05728.17216-.25114.27189-.42583.21351-.08529-.02825-.15448-.08805-.19487-.16837-.04033-.08033-.04704-.17153-.01879-.25658.04592-.13838.17445-.23133.31986-.23133.03582,0,.07149.00583.10573.01719.17619.05854.27213.24965.21391.42559ZM52.90538,120.95792c.3564,0,.64635.28989.64635.64635s-.28995.64635-.64635.64635-.64635-.28987-.64635-.64635.28995-.64635.64635-.64635ZM51.97033,121.8566c-.00095-.00364-.00183-.00711-.00276-.01073.00094.00362.00181.00726.00276.01073Z"/>
  </g>
  <g>
    <path d="M103.16213,62.38918h-.01256c-5.01418-6.79452-14.28625-19.31661-19.23076-26.00684-.79489-1.09782-1.22396-2.39757-1.22396-3.7604v-11.59646c1.4904-.52243,2.53879-1.98168,2.52371-3.57101,0-2.08209-1.70348-3.78555-3.78557-3.78555h-15.14229c-4.2893.10488-5.21308,5.85989-1.26186,7.35656v11.59646c0,1.36283-.42907,2.66258-1.22396,3.76039-4.69575,6.34668-14.43882,19.51618-19.24332,26.00686-2.4417,3.31353-.05142,8.07432,4.07583,8.06324-.00005.00004,50.44896.00004,50.44896.00004,4.1147.0109,6.52514-4.74156,4.07576-8.06328ZM99.08636,67.92875h-50.44901c-1.40064,0-2.53634-1.1357-2.53634-2.53636,0-.52995.17668-1.07253.49214-1.51424,1.27311-1.71992,14.36632-19.44282,15.16747-20.5178-.00002,0,4.06321-5.48904,4.06321-5.48904,1.1357-1.52687,1.72875-3.34395,1.72875-5.24937v-12.64374c0-.69401-.56787-1.26186-1.26187-1.26186s-1.26186-.56785-1.26186-1.26186c-.01442-.65393.584-1.27832,1.26186-1.26186h15.14229c1.67349.07097,1.66887,2.44554-.00002,2.52371-.69399,0-1.26184.56785-1.26184,1.26186v12.64374c0,1.90543.59303,3.72251,1.72873,5.24937,4.84877,6.56177,14.28838,19.34355,19.21807,26.00684,1.24509,1.62809.03083,4.08016-2.03157,4.0506Z"/>
    <g>
      <path d="M60.90273,56.3118c-.64062.01318-.96729.38037-.97998,1.10254v3.05518c.0127.72852.33936,1.09619.97998,1.10254.63721-.00635.96533-.37402.98486-1.10254v-3.05518c-.01953-.72217-.34766-1.08936-.98486-1.10254Z"/>
      <path d="M54.30605,58.33036c.0083.49121.22852.73877.66064.74316.42969-.00439.65088-.25195.66406-.74316v-2.06055c-.00311-.11414-.0199-.21265-.0459-.30054-.43823.59265-.86591,1.17114-1.27881,1.72955v.63153Z"/>
      <path d="M71.86464,49.30545c.7207-.00732,1.0918-.42334,1.11426-1.24756v-2.85193c-.72943-.23083-1.46875-.44232-2.2193-.6355-.00037.01117-.00415.01855-.00433.02991v3.45752c.01465.82422.38379,1.24023,1.10938,1.24756Z"/>
      <path d="M70.72988,60.78006c-1.28125.02637-1.93555.76123-1.96094,2.20508v2.40442l3.92969.00214v-2.40656c-.03906-1.44385-.69531-2.17871-1.96875-2.20508Z"/>
      <path d="M83.2538,51.28934c-1.15723.02393-1.74707.6875-1.77051,1.9917v5.52002c.02344,1.31592.61328,1.97998,1.77051,1.9917,1.15137-.01172,1.74414-.67578,1.7793-1.9917v-5.52002c-.03516-1.3042-.62793-1.96777-1.7793-1.9917Z"/>
      <path d="M97.59737,63.39866l-10.20844-13.84253-1.71613-2.30927c-3.33521.34595-7.18195-.22137-11.56842-1.68927v2.56378c-.01465.74805-.23877,1.3252-.67627,1.73047-.42871.40234-.9502.60693-1.56348.61426-.5957-.00732-1.1084-.21191-1.53809-.61328-.45801-.40479-.69043-.98096-.69824-1.72803v-3.59717c.00085-.08331.01489-.15643.0213-.23547-1.59564-.36371-3.22058-.63959-4.8479-.79297-.30499.41925-4.82306,6.52814-8.77942,11.87854.16437.2254.27289.4967.27985.85107v2.13916c-.00879.4458-.14307.78955-.40332,1.03125-.25586.23975-.56641.36182-.93213.36621-.35498-.00439-.66016-.12646-.91602-.36572-.22906-.20245-.34186-.49341-.38159-.83936-1.83618,2.48364-3.25043,4.3974-3.55536,4.81311-.61829.83282-.02527,2.00629,1.00946,2.00629l15.65503.00873v-2.53174c.01221-1.32715.42383-2.34814,1.23389-3.06445.75879-.70898,1.66504-1.06396,2.71777-1.06396,1.08398,0,2.00586.35547,2.76367,1.06592.77295.7168,1.17139,1.74023,1.19678,3.06885v2.52979l17.62109.00977v-3.64404l-.59277.44824v-.65576l.59277-.44287h.59473v4.29474l3.68176.00208c1.03473,0,1.62775-1.17352,1.00946-2.00635ZM62.8832,60.52567c-.0127.66113-.21191,1.17139-.59766,1.52979-.37988.35498-.84082.53613-1.38281.54248-.52637-.00635-.979-.18701-1.3584-.54199-.40527-.35791-.61084-.8667-.61719-1.52686v-3.1792c.00635-.66357.21191-1.17432.61719-1.53223.37939-.35449.83203-.53174,1.3584-.53174.54199,0,1.00293.17725,1.38281.53271.38574.3584.58496.87012.59766,1.53467v3.17236ZM66.15859,56.4578h-1.12695v-6.90918l-1.12158.84863v-1.2417l1.12158-.83789h1.12695v8.14014ZM76.41103,58.72245h-.59473v-3.64941l-.59277.44824v-.65576l.59277-.44287h.59473v4.2998ZM86.83193,58.90213c-.02344,1.19434-.38281,2.11572-1.08008,2.76318-.68555.6416-1.51855.96875-2.49805.98047-.9502-.01172-1.76855-.33789-2.4541-.979-.73145-.64648-1.10352-1.56641-1.11523-2.75879v-5.74316c.01172-1.19824.38379-2.12109,1.11523-2.76758.68555-.64062,1.50391-.96143,2.4541-.96143.97949,0,1.8125.3208,2.49805.96289.69727.64746,1.05664,1.57178,1.08008,2.77197v5.73145Z"/>
    </g>
  </g>
  <circle class="c" cx="72.96893" cy="72.96893" r="71.46893"/>
  <g>
    <g>
      <path d="M35.88808,94.05838c-1.81348-1.6416-3.50439-1.81348-4.43555-1.81348-3.55371,0-5.95508,2.62207-5.95508,6.22461,0,3.45508,2.49951,6.12598,5.97949,6.12598,1.96045,0,3.47949-1.00391,4.41113-1.88672v2.96582c-1.64209.97949-3.35742,1.22461-4.48486,1.22461-2.96484,0-4.82764-1.34766-5.7832-2.25391-1.91162-1.78906-2.62207-3.87207-2.62207-6.17578,0-3.01465,1.25-5.09766,2.62207-6.39551,1.69092-1.59375,3.65137-2.13281,5.90576-2.13281,1.49512,0,2.94092.26953,4.3623,1.17676v2.94043Z"/>
      <path d="M53.60683,98.42069c0,4.80273-3.60205,8.47852-8.50342,8.47852-4.90088,0-8.50342-3.67578-8.50342-8.47852,0-4.80371,3.60254-8.47949,8.50342-8.47949,4.90137,0,8.50342,3.67578,8.50342,8.47949ZM51.10732,98.42069c0-3.62695-2.49951-6.17578-6.00391-6.17578s-6.00391,2.54883-6.00391,6.17578,2.49951,6.1748,6.00391,6.1748,6.00391-2.54785,6.00391-6.1748Z"/>
      <path d="M59.09804,90.23514c2.2793,0,4.26416.24512,6.07764,1.59375,1.98486,1.49414,3.13623,3.87109,3.13623,6.5918,0,2.71973-1.12695,5.07227-3.2832,6.5918-1.91162,1.34766-3.70068,1.56836-5.97949,1.56836h-3.38184v-16.3457h3.43066ZM58.16689,104.22831h1.07812c1.22559,0,2.9165-.09766,4.33789-1.15137,1.12695-.8584,2.22998-2.42676,2.22998-4.65625,0-2.15625-1.0293-3.84766-2.20557-4.70508-1.42139-1.0293-3.16113-1.12793-4.3623-1.12793h-1.07812v11.64062Z"/>
      <path d="M79.38955,92.58768h-6.51807v4.1416h6.32178v2.35254h-6.32178v5.14648h6.51807v2.35254h-9.01709v-16.3457h9.01709v2.35254Z"/>
      <path d="M85.54189,90.23514v12.74316h5.09668v3.60254h-9.33594v-16.3457h4.23926Z"/>
      <path d="M102.79482,103.83573h-5.93066l-1.10254,2.74512h-4.48438l6.27344-16.3457h4.63086l6.15137,16.3457h-4.5332l-1.00488-2.74512ZM101.66689,100.60135l-1.83789-5.29297-1.78809,5.29297h3.62598Z"/>
      <path d="M109.48623,106.58085v-16.3457h6.32227c1.17578,0,2.57324.17188,3.57715,1.27441.56445.61328,1.00488,1.61816,1.00488,3.06348,0,.71094-.12207,1.32324-.46582,2.00977-.34277.63672-.70996,1.00488-1.32324,1.27441.8584.09766,1.71582.49023,2.23047.97949.66113.6377,1.10254,1.69141,1.10254,2.99023,0,1.54395-.58789,2.59766-1.2002,3.20996-.88281.90723-2.42676,1.54395-4.43555,1.54395h-6.8125ZM113.72548,96.68045h.78418c.44043,0,1.17578-.04883,1.61719-.51465.26953-.26953.3916-.71094.3916-1.07812,0-.41699-.14648-.83301-.3916-1.10254-.26953-.26953-.78418-.49023-1.61719-.49023h-.78418v3.18555ZM113.72548,103.27225h.95508c1.17676,0,2.15723-.12207,2.62207-.66113.19629-.2207.34375-.58789.34375-1.05371,0-.51465-.17188-.93164-.41699-1.17676-.51465-.51465-1.56836-.53906-2.62207-.53906h-.88184v3.43066Z"/>
    </g>
    <g>
      <path d="M52.52651,85.23441c-.27682.53107-.6928,1.10878-1.17798,1.54808-.8786.78532-1.96406,1.17873-3.18868,1.17873-2.31083,0-4.73751-1.45631-4.73751-5.01432,0-2.86522,1.75644-5.08353,4.64498-5.08353,1.87153,0,3.05027.92373,3.62722,1.75569.60103.85528.9478,2.33415.90192,3.60466h-7.46432c.02332,1.98738,1.3871,3.25863,3.05027,3.25863.78607,0,1.40967-.23168,1.96406-.69355.4393-.36934.78607-.85528.99369-1.31714l1.38635.76275ZM50.88591,81.83736c-.27682-1.50219-1.40892-2.49513-2.81858-2.49513s-2.56508,1.06289-2.81933,2.49513h5.63792Z"/>
      <path d="M60.04904,76.2857c-.19177-.38353-.51207-.81084-.83238-1.06653-.27723-.214-.78999-.49123-1.60083-.49123-1.40837,0-2.39013.87476-2.39013,2.19836,0,.55515.14938.87546.53361,1.23814.42661.42661.96022.66145,1.49383.8963l1.36599.59753c.83238.36269,1.60083.74692,2.19836,1.34445.72538.72607,1.02414,1.55845,1.02414,2.58259,0,2.62567-1.94198,4.37589-4.50304,4.37589-.93938,0-2.1129-.19246-3.09466-1.15268-.70453-.68299-1.13184-1.66475-1.3236-2.51867l1.53691-.42661c.10631.74692.44815,1.38683.85322,1.81414.61907.61907,1.3236.7893,2.04898.7893,1.94268,0,2.86051-1.38683,2.86051-2.81744,0-.63992-.19246-1.19507-.70453-1.66475-.40577-.38423-.96022-.63992-1.70714-.98176l-1.28122-.59753c-.55445-.25569-1.25899-.55515-1.8996-1.17353-.61838-.59753-.98176-1.25968-.98176-2.3269,0-2.19836,1.68629-3.67066,3.99166-3.67066.87476,0,1.57929.17023,2.28383.63992.57599.38423,1.06722.96092,1.38683,1.57929l-1.25899.83238Z"/>
      <path class="b" d="M70.44611,80.30932c-.29807-.29877-.75317-.65381-1.23675-.88171-.49818-.2272-1.08112-.36964-1.63557-.36964-2.19072,0-3.8117,1.76342-3.8117,3.95344,0,2.57425,2.09067,3.86868,3.8256,3.86868.63992,0,1.26594-.18482,1.76342-.4412.54056-.27028.92479-.62533,1.09501-.79625v1.30832c-1.05194.75386-2.14695.92479-2.85843.92479-2.81605,0-4.90672-2.13375-4.90672-4.87823,0-2.82994,2.11916-4.9352,4.96369-4.9352.56905,0,1.66406.07156,2.80146.93868v1.30832Z"/>
      <path class="b" d="M72.81192,78.21865v9.48618h-1.05263v-9.48618h1.05263Z"/>
      <path class="b" d="M79.55432,79.21431h-3.86798v2.81605h3.75473v.99566h-3.75473v3.68316h3.86798v.99566h-4.92061v-9.48618h4.92061v.99566Z"/>
      <path class="b" d="M80.86611,87.70483v-9.8843l7.39551,7.75125v-7.35313h1.05263v9.91279l-7.39551-7.75056v7.32395h-1.05263Z"/>
      <path class="b" d="M98.39258,80.30932c-.29807-.29877-.75317-.65381-1.23675-.88171-.49818-.2272-1.08112-.36964-1.63557-.36964-2.19072,0-3.8117,1.76342-3.8117,3.95344,0,2.57425,2.09067,3.86868,3.8256,3.86868.63992,0,1.26594-.18482,1.76342-.4412.54056-.27028.92479-.62533,1.09501-.79625v1.30832c-1.05194.75386-2.14695.92479-2.85843.92479-2.81605,0-4.90672-2.13375-4.90672-4.87823,0-2.82994,2.11916-4.9352,4.96369-4.9352.56905,0,1.66406.07156,2.80146.93868v1.30832Z"/>
      <path class="b" d="M104.62707,79.21431h-3.86868v2.81605h3.75473v.99566h-3.75473v3.68316h3.86868v.99566h-4.92131v-9.48618h4.92131v.99566Z"/>
    </g>
  </g>
</svg>