<?xml version="1.0" encoding="UTF-8"?>
<svg xmlns="http://www.w3.org/2000/svg" viewBox="0 0 288.03258 51.71289">
  <defs>
    <style>
      .c {
        fill: #3d215d;
      }

      .d {
        fill: #808285;
      }

      .e {
        fill: #b3b3b3;
      }
    </style>
  </defs>
  <g id="a" data-name="Layer 1">
    <g>
      <g>
        <path class="c" d="M32.25199,27.26266c.06611,1.40967.94516,2.32219,2.18922,2.32219.91214,0,1.46003-.38154,2.12315-1.44312l.99512.56401c-.76305,1.34356-1.7743,1.95714-3.18436,1.95714-1.99101,0-3.36724-1.49265-3.36724-3.64922,0-2.10666,1.39318-3.58282,3.35032-3.58282s3.26808,1.44312,3.26808,3.59931v.23245h-5.37433l.00004.00005ZM36.38227,26.26718c-.21595-1.07811-1.01204-1.77467-2.02404-1.77467-.99507,0-1.85728.7465-2.02325,1.77467,0,0,4.04731,0,4.0473,0Z"/>
        <path class="c" d="M44.22054,21.57325c-.56401-.89578-1.04506-1.19434-1.90725-1.19434-1.02816,0-1.82497.72983-1.82497,1.70841,0,.48103.23279.87946.69694,1.19452.26514.16596.54715.33157.8622.46411l.34881.16596.34812.14909.34812.14947c1.77503.77954,2.50504,1.65863,2.50504,3.03564,0,1.90725-1.52609,3.41681-3.48328,3.41681-1.77506,0-3.00225-1.02852-3.43335-2.85279l1.19414-.33194c.29818,1.32706,1.06123,2.02368,2.22231,2.02368,1.27712,0,2.25608-.94556,2.25608-2.17278,0-.68007-.29893-1.19448-.91214-1.57602-.28201-.18212-.59706-.34811-.96208-.49754l-.33195-.16559-.33195-.14947-.33123-.14947c-1.5929-.71306-2.23993-1.49265-2.23993-2.73674,0-1.60908,1.34396-2.83642,3.10212-2.83642,1.24408,0,2.18922.58053,2.85316,1.72508l-.97894.63031.00003.00002Z"/>
        <path class="c" d="M52.72342,25.63705c-.76305-.82911-1.32706-1.12803-2.17309-1.12803-1.37701,0-2.42132,1.09499-2.42132,2.53811,0,1.42622,1.04431,2.53775,2.37138,2.53775.91289,0,1.47616-.29856,2.27298-1.19452v1.55914c-.84603.53097-1.41004.71346-2.20612.71346-2.05707,0-3.64925-1.57565-3.64925-3.5993,0-2.05667,1.59221-3.63274,3.68232-3.63274.79607,0,1.41004.18251,2.12314.64705v1.55912l-.00004-.00005Z"/>
        <path class="c" d="M55.79029,20.976c0,.46472-.38117.84589-.84603.84589-.46415,0-.84603-.38117-.84603-.84589,0-.46431.38188-.84584.84603-.84584.46486,0,.84603.38154.84603.84584ZM55.52517,30.46391h-1.17797v-6.88393h1.17797v6.88393Z"/>
        <path class="c" d="M58.25349,27.26266c.06606,1.40967.94517,2.32219,2.18922,2.32219.91214,0,1.45999-.38154,2.12315-1.44312l.99513.56401c-.76305,1.34356-1.7743,1.95714-3.18436,1.95714-1.99101,0-3.36724-1.49265-3.36724-3.64922,0-2.10666,1.39318-3.58282,3.35032-3.58282s3.26808,1.44312,3.26808,3.59931v.23245h-5.37432l.00002.00005ZM62.38376,26.26718c-.2159-1.07811-1.01201-1.77467-2.024-1.77467-.99513,0-1.85728.7465-2.02325,1.77467h4.04725Z"/>
        <path class="c" d="M66.31283,23.57999v.82991c.59705-.73001,1.12803-.9955,1.99096-.9955.82916,0,1.5922.36462,1.97331.94556.26588.43106.38192.94517.38192,1.84112v4.26284h-1.17802v-4.0638c0-1.41004-.38112-1.92415-1.45924-1.92415-1.19489,0-1.70894.76305-1.70894,2.55425v3.43367h-1.17726v-6.88393h1.17726l.00002.00004Z"/>
        <path class="c" d="M77.93548,25.63705c-.76305-.82911-1.32706-1.12803-2.17309-1.12803-1.37701,0-2.42131,1.09499-2.42131,2.53811,0,1.42622,1.0443,2.53775,2.37138,2.53775.91286,0,1.47616-.29856,2.27298-1.19452v1.55914c-.84603.53097-1.41004.71346-2.20615.71346-2.05708,0-3.64922-1.57565-3.64922-3.5993,0-2.05667,1.59216-3.63274,3.68228-3.63274.79609,0,1.41004.18251,2.12315.64705v1.55912l-.00002-.00005Z"/>
        <path class="c" d="M80.32892,27.26266c.06682,1.40967.94589,2.32219,2.18998,2.32219.91214,0,1.45924-.38154,2.12315-1.44312l.99507.56401c-.76305,1.34356-1.77506,1.95714-3.1851,1.95714-1.99021,0-3.36722-1.49265-3.36722-3.64922,0-2.10666,1.39313-3.58282,3.35106-3.58282,1.95714,0,3.26734,1.44312,3.26734,3.59931v.23245h-5.37432l.00004.00005ZM84.45915,26.26718c-.21516-1.07811-1.01201-1.77467-2.02325-1.77467-.99587,0-1.85804.7465-2.024,1.77467h4.04725Z"/>
        <path class="c" d="M92.95182,30.46391h-1.24408v-11.06359h1.24408v11.06359Z"/>
        <path class="c" d="M96.38659,23.57999v.82991c.59705-.73001,1.12803-.9955,1.99023-.9955.82916,0,1.5922.36462,1.97406.94556.26513.43106.38117.94517.38117,1.84112v4.26284h-1.17728v-4.0638c0-1.41004-.38188-1.92415-1.45999-1.92415-1.19414,0-1.70823.76305-1.70823,2.55425v3.43367h-1.17797v-6.88393h1.17797l.00004.00004Z"/>
        <path class="c" d="M105.39845,25.18907c-.24896-.46411-.54784-.68007-.94589-.68007-.46415,0-.84603.33194-.84603.74656,0,.41455.2159.63045,1.11187.99546,1.65829.69624,2.07321,1.12771,2.07321,2.17278,0,1.26058-1.02816,2.23916-2.33907,2.23916-1.1611,0-1.97331-.58053-2.42134-1.75812l1.04505-.43147c.39805.84603.72928,1.11154,1.39318,1.11154.63013,0,1.11116-.46454,1.11116-1.0785,0-.5306-.24896-.77922-1.11116-1.1442-1.59218-.69694-1.99021-1.09499-1.99021-2.00713,0-1.11113.86215-1.92415,2.05629-1.92415.79609,0,1.42695.41497,1.84114,1.24408l-.97824.51407h.00005Z"/>
        <path class="c" d="M109.34587,30.46391h-1.17797v-5.78892h-.71311v-1.09499h.71311v-2.48778h1.17797v2.48778h1.22716v1.09499h-1.22716v5.78892Z"/>
        <path class="c" d="M112.96647,20.976c0,.46472-.38117.84589-.84603.84589-.46415,0-.84603-.38117-.84603-.84589,0-.46431.38188-.84584.84603-.84584.46486,0,.84603.38154.84603.84584ZM112.70136,30.46391h-1.17797v-6.88393h1.17797v6.88393Z"/>
        <path class="c" d="M115.87764,30.46391h-1.17797v-5.78892h-.71311v-1.09499h.71311v-2.48778h1.17797v2.48778h1.22716v1.09499h-1.22716v5.78892Z"/>
        <path class="c" d="M119.2324,27.59424c0,1.39318.46491,1.99061,1.55914,1.99061,1.07811,0,1.54297-.59746,1.54297-1.99061v-4.01427h1.17728v4.14719c0,1.01167-.16527,1.55914-.63013,2.07321-.49717.56401-1.24408.86254-2.09011.86254-.86215,0-1.60908-.29851-2.10623-.86254-.46491-.51407-.63013-1.06156-.63013-2.07321v-4.14719h1.17722v4.01427Z"/>
        <path class="c" d="M126.65866,30.46391h-1.17722v-5.78892h-.71385v-1.09499h.71385v-2.48778h1.17722v2.48778h1.22796v1.09499h-1.22796v5.78892Z"/>
        <path class="c" d="M129.55294,27.26266c.06611,1.40967.94518,2.32219,2.18927,2.32219.91214,0,1.45999-.38154,2.12315-1.44312l.99507.56401c-.76305,1.34356-1.7743,1.95714-3.18436,1.95714-1.99096,0-3.36724-1.49265-3.36724-3.64922,0-2.10666,1.39318-3.58282,3.35037-3.58282s3.26808,1.44312,3.26808,3.59931v.23245h-5.37437l.00002.00005ZM133.68323,26.26718c-.2159-1.07811-1.01201-1.77467-2.024-1.77467-.99513,0-1.85731.7465-2.02331,1.77467h4.04731Z"/>
      </g>
      <path class="c" d="M16.87209,27.60601c-.05159-.13219-.11234-.25926-.18229-.38117l8.86971-6.36288c.41219.44434.999.72413,1.65149.72413,1.24408,0,2.25608-1.01183,2.25608-2.25588s-1.01201-2.25608-2.25608-2.25608-2.25608,1.01201-2.25608,2.25608c0,.38921.09915.75586.27358,1.07571l-.00037-.00037-8.86736,6.36142c-.12578-.14286-.26589-.27246-.4179-.3874l2.71528-4.45926c-.00035-.00037-.00091-.00037-.00146-.00075.33671.15607.71037.24532,1.10549.24532.04019,0,.08058-.00075.12114-.00257,1.4501-.06611,2.57629-1.29898,2.5104-2.74833-.03598-.80285-.42556-1.5068-1.01495-1.96433.00019.00037.00053.00055.00091.00075l2.9815-4.89664c.17811.07217.37251.1122.57633.1122l.07035-.00165c.84547-.03821,1.50254-.75737,1.46475-1.6032-.03693-.82215-.71018-1.46641-1.53289-1.46641l-.07014.00165c-.84584.03835-1.50315.75751-1.46534,1.60356.0191.41549.20141.78455.48232,1.04892l-2.9868,4.90543h0c-.37695-.1792-.80328-.27193-1.254-.25081-1.44972.06592-2.57611,1.29861-2.51109,2.74833.03707.8139.4388,1.52445,1.04226,1.98065-.00091-.00073-.00181-.0011-.00274-.00181l-2.71305,4.45594c-.17185-.08261-.35289-.14759-.5418-.19387l1.27142-8.81431c-.03249.00202-.06332.00975-.09636.00975-.08591,0-.1691-.00994-.25043-.02533.08186.01356.16466.02533.25043.02533.84675,0,1.53563-.68886,1.53563-1.53563s-.68888-1.53563-1.53563-1.53563-1.53563.68889-1.53563,1.53563c0,.68428.45276,1.25839,1.07224,1.45633l-1.27017,8.80527c-.03853-.00147-.07619-.00586-.11491-.00586-.2064,0-.40706.02351-.60076.06574l-.47664-1.47982h-.00037c.48528-.25817.81997-.76342.81997-1.3502,0-.84678-.68886-1.53563-1.53563-1.53563s-1.53563.68886-1.53563,1.53563.68888,1.53562,1.53563,1.53562c.06076,0,.11844-.01101.17737-.01797l.47901,1.48717c-.52327.23096-.96152.61688-1.25986,1.09902l-7.46628-3.66981c.08223-.23389.12942-.4843.12942-.74613,0-1.24408-1.01201-2.25588-2.25608-2.25588s-2.25608,1.01183-2.25608,2.25588,1.01201,2.25608,2.25608,2.25608c.78178,0,1.47138-.3999,1.87624-1.00542l-.00037.00075,7.47016,3.67164c-.08042.21814-.13769.44764-.16175.68742l-2.94571-.01287c.02022.09915.03107.20197.03107.30698,0-.84678-.68888-1.53563-1.53563-1.53563-.8464,0-1.53489.68886-1.53489,1.53563,0,.8464.68849,1.53489,1.53489,1.53489.75865,0,1.38636-.55411,1.50954-1.27785l2.94021.01287c.05874.59963.30679,1.14269.68153,1.57272l-2.4239,2.58104.00053.00037c-.1944-.14649-.40776-.26954-.64553-.34811-.23058-.07638-.46964-.11527-.71053-.11527-.97346,0-1.83381.62166-2.14133,1.54666-.18965.57172-.14506,1.18347.12559,1.72182.27042.53868.7344.93929,1.30631,1.12913.2306.07638.46964.11533.71053.11533.97403,0,1.83453-.62171,2.14135-1.54666.18928-.57211.14483-1.18388-.1254-1.72219-.11916-.23724-.2811-.4421-.46803-.61949.07711.07016.15019.14469.21557.22693l2.42627-2.58359c.40373.30953.89157.5148,1.42529.56879l.00221,4.19711c-.55082.09511-1.01459.4843-1.19562,1.0296-.12889.38927-.09841.80529.08572,1.17176.184.36608.49977.63892.88845.76779.15698.05214.31985.07858.48416.07858.66226,0,1.24795-.42262,1.45723-1.05238.26583-.80342-.17113-1.67404-.97474-1.94102-.05929-.01983-.12026-.03229-.1812-.04444l-.00221-4.20629c.19132-.01873.37695-.05617.55504-.11089l2.81004,6.59527c-.46198.2706-.82716.69841-1.00377,1.23306-.19019.57172-.14578,1.18312.12484,1.72219.27065.53831.73442.93929,1.30617,1.12915.23042.07641.46926.11494.71018.11494.97418,0,1.83486-.62166,2.1417-1.54703.39068-1.18053-.25174-2.4595-1.43209-2.85095-.2306-.07638-.46968-.11527-.71055-.11527-.21369,0-.42028.03485-.61836.09141l-2.80871-6.59197c.25113-.13736.47806-.31289.67544-.51702l1.30177,1.01604c.00035-.00037.00053-.0011.00091-.00147-.07362.12926-.13955.26368-.18763.40906-.39142,1.18058.25062,2.4595,1.43115,2.85095.23042.07639.46931.11495.70999.11495.97383,0,1.83436-.62166,2.14115-1.54703.39052-1.18053-.25134-2.4595-1.43134-2.85095-.2306-.07638-.46964-.11527-.71053-.11527-.6296,0-1.20867.26217-1.62415.69546.00258-.00257.00439-.00554.007-.00808l-1.28923-1.00615c.15293-.23866.26968-.50193.34514-.78288l8.16435,1.31529c0-.00073.00019-.00147,0-.00218.01873.62752.41772,1.20696,1.04671,1.41516.1566.05177.31908.07826.48306.07826.66317,0,1.24866-.42303,1.45705-1.05281.26602-.80305-.17094-1.6733-.97455-1.94027-.1566-.05177-.31908-.0782-.48287-.0782-.6518,0-1.22701.40979-1.44528,1.02227l-8.15758-1.31382c.00367-.0591.00903-.11751.00903-.17736,0-.16342-.01692-.32241-.04354-.47842l4.47198-1.2463c-.00037-.00075-.00056-.00185-.00091-.00256.33395.82911,1.14512,1.41663,2.09248,1.41663,1.24408,0,2.25608-1.01201,2.25608-2.25608s-1.01201-2.25608-2.25608-2.25608-2.25608,1.01201-2.25608,2.25608c0,.101.00898.19941.02185.29709,0-.00037-.00019-.00075-.00019-.0011l-4.4795,1.24849-.0002-.00007ZM27.21103,17.82613c.82934,0,1.50406.67471,1.50406,1.50405s-.67472,1.50405-1.50406,1.50405-1.50406-.67471-1.50406-1.50405.67476-1.50405,1.50406-1.50405ZM25.39227,20.65945c-.00624-.00842-.01287-.01669-.01892-.02516.00605.00847.01268.01672.01892.02516ZM24.93971,10.34663c.41951,0,.76286.32864.78159.74815.01929.43166-.31596.7987-.74744.81812l-.03637.00092c-.41914,0-.76268-.32885-.78197-.74821-.01924-.43147.31638-.79865.78418-.81903v.00004ZM17.88594,19.6177c-.04644-1.0353.75827-1.91606,1.79377-1.96305.02902-.00128.05782-.00201.0865-.00201,1.00703,0,1.83105.78854,1.87624,1.79523.047,1.0353-.75737,1.91606-1.79326,1.96305-1.0412.05102-1.91624-.75774-1.96325-1.79326v.00004ZM18.41491,21.79174c-.00386-.00222-.00789-.0044-.01196-.00701.00407.00257.00808.00478.01196.00701ZM15.31076,15.55243c0-.43202.35157-.78361.78362-.78361.43201,0,.78362.35161.78362.78361s-.35161.78361-.78362.78361c-.43203,0-.78362-.35161-.78362-.78361ZM11.66884,23.0439c0-.43221.35161-.78361.78362-.78361.43203,0,.78362.35138.78362.78361,0,.43219-.35157.78357-.78362.78357-.43201,0-.78362-.35138-.78362-.78357ZM12.91184,24.50167c-.00128.00037-.00256.00075-.00403.0011.00146-.00036.00274-.00073.00403-.0011ZM2.25601,24.23584c-.8293,0-1.50406-.67457-1.50406-1.50405,0-.82916.67476-1.50387,1.50406-1.50387s1.50406.67471,1.50406,1.50387c0,.82948-.67472,1.50405-1.50406,1.50405ZM4.27855,23.72505c-.00384.00808-.00752.01612-.01135.02388.00384-.00774.00752-.0158.01135-.02388ZM6.98999,29.41924c-.43166,0-.78287-.35106-.78287-.78288,0-.43219.35119-.78361.78287-.78361.43201,0,.78362.35141.78362.78361,0,.43182-.35161.78288-.78362.78288ZM9.77043,35.32679c-.20452.61651-.77808,1.03111-1.4275,1.03111-.16026,0-.31985-.02608-.47366-.07712-.78748-.26112-1.21581-1.11372-.95512-1.90026.20508-.61694.77885-1.03148,1.42768-1.03148.16049,0,.31985.02606.47403.07712.38135.12632.69075.39326.87086.75242.18027.35875.20985.76671.0837,1.14821ZM19.49744,38.43401c.78688.26112,1.21523,1.11375.95489,1.90065-.20452.61692-.77848,1.0315-1.42785,1.0315-.16028,0-.31949-.02571-.47334-.07673-.38116-.1263-.69056-.39402-.87086-.75311-.18046-.35912-.21001-.76635-.08333-1.1479.20396-.61688.77733-1.03145,1.42656-1.03145.16028,0,.31985.02606.4739.07709l.00003-.00005ZM18.12667,37.79733c.0097-.00407.01962-.00808.02955-.01211-.00993.00403-.01985.00806-.02955.01211ZM18.10077,32.24705c.20399-.61688.77738-1.03145,1.42659-1.03145.16026,0,.3198.02606.47384.07712.78655.26107,1.21453,1.11372.95417,1.90059-.20452.61694-.77826,1.03148-1.42731,1.03148-.1601,0-.31926-.02571-.47315-.07675-.78711-.26107-1.21504-1.11372-.95417-1.90102l.00003.00002ZM25.91554,30.38683c.10667-.32168.40576-.53758.74431-.53758.08335,0,.16617.01356.24603.04.41016.13622.63324.58019.49754.98998-.13255.40065-.58385.63125-.99016.49721-.4096-.13548-.63287-.57982-.49771-.9896ZM25.14222,30.41839c.01103-.08921.02992-.17883.05929-.26806-.02918.08884-.04682.17846-.05929.26806ZM14.96653,37.38933c-.13329.40061-.5844.63269-.99091.49683-.19847-.06574-.35948-.20489-.45346-.3918-.09385-.18693-.10946-.39915-.04373-.59705.10686-.32201.40595-.53831.74431-.53831.08335,0,.16636.01356.24603.04.40999.13622.63324.58093.49776.99033ZM23.58602,24.55747c.82934,0,1.50406.67457,1.50406,1.50405s-.67472,1.50405-1.50406,1.50405-1.50406-.67453-1.50406-1.50405.67472-1.50405,1.50406-1.50405ZM21.41016,26.6487c-.00221-.00847-.00426-.01655-.00643-.02496.00218.00842.00421.0169.00643.02496Z"/>
    </g>
    <path class="e" d="M168.32447,4.31836l1.52734.76367-24.05469,43.00391-1.52783-.76367,24.05518-43.00391Z"/>
  </g>
  <g id="b" data-name="Layer 2">
    <g>
      <path class="c" d="M237.61181,11.29306v2.88918h2.02781l-2.27904,8.45219s-2.78151-11.1978-2.8174-11.35931h-2.94301c-.03589.16151-3.05068,11.35931-3.05068,11.35931l-2.09959-8.45219h2.11753v-2.88918h-8.50602v2.88918h1.88425s3.24808,13.01027,3.28397,13.15383h4.55808c.03589-.16151,2.17137-8.29068,2.17137-8.29068,0,0,2.02781,8.12917,2.0637,8.29068h4.55808c.03589-.16151,3.46342-13.15383,3.46342-13.15383h1.92015v-2.88918h-6.3526Z"/>
      <path class="d" d="M279.26262,32.68374s.01794-.05383.07179-.07178c.41274-.05383.86137,0,1.1126.07178.01794,0,.01794.05383.07179.07178.08973.01795.14356.01795.21534.07178.23329.14356.46657.34096.69987.59219.07179.07178.17945.16151.21534.1974.01794.01795-.01794.10767,0,.12562,0,0,.07179-.01795.07179,0,.01794.01795-.01794.10767,0,.12562h.07179c.01794.01795-.01794.10767,0,.12562h.07179c.01794.01795-.01794.10767,0,.12562.12562.10767.12562.3948.21534.66397.10767.32301.10767,1.20233,0,1.65096-.01794.05383-.07179.05383-.07179.07178-.03589.14356-.01794.32301-.07179.46658-.01794.01795-.07179,0-.07179.07178,0,.08973-.12562.14356-.14356.26918,0,.12562-.26918.25123-.26918.3948,0,.03589-.3589.44863-.48452.46658-.08973,0-.08973.08973-.14356.12562-.01794.01795-.12562-.01795-.14356,0q-.05383.05383-.14356.07178c-.05383.01795-.12562.03589-.21534.07178-.07179.01795-.69987.12562-1.04082.07178,0,0-.03589-.05383-.07179-.07178-.12562-.03589-.28712-.05383-.41274-.12562-.25124-.16151-.48452-.34096-.69987-.59219-.07179-.07178-.17945-.14356-.21534-.1974-.01794-.01795.01794-.10767,0-.12562h-.07179c-.01794-.01795.01794-.10767,0-.12562h-.07179c-.01794-.01795.01794-.10767,0-.12562h-.07179c-.01794-.01795.01794-.10767,0-.12562-.12562-.10767-.12562-.3948-.21534-.66397-.10767-.32301-.10767-1.23822,0-1.65096.01794-.05383.07179-.05383.07179-.07178.05383-.17945.01794-.34096.07179-.46658.01794-.03589.07179,0,.07179-.07178,0-.08973.12562-.14356.14356-.26918,0-.14356.17945-.1974.26918-.32301.01794-.01795-.01794-.10767,0-.12562.07179-.05383.32301-.34096.41274-.3948.05383-.03589.14356-.03589.21534-.07178.03589-.01795.10767-.12562.14356-.12562.14355-.10767.25122-.07178.41273-.10767M279.06522,33.27593c-.07179.05383-.14356.07178-.21534.12562-.10767.10767-.08973.16151-.14356.26918-.01794.01795-.12562.03589-.14356.07178-.05383.08973-.03589.17945-.07179.26918s-.10767.16151-.14356.26918c-.17945.5563-.19739,1.74069-.07179,2.24315.01794.08973.03589.23329.07179.32301.01794.05383.05383.03589.07179.07178.05383.08973.10767.3948.14356.46658.01794.01795.12562.05383.14356.07178s-.01794.10767,0,.12562c.05383.05383.17945.17945.21534.1974.12562.10767.26918.1974.41274.1974.05383,0,.05383.07178.07179.07178.28712.05383.73575-.05383.77164-.07178.17945-.07178.30507-.10767.41274-.1974.23329-.17945.32301-.44863.41274-.66397.03589-.10767.10767-.17945.14356-.26918.17945-.59219.19739-1.68685.07179-2.24315-.03589-.10767-.03589-.16151-.07179-.26918-.05383-.17945-.10767-.25123-.14356-.32301-.03589-.10767-.01794-.16151-.07179-.26918-.01794-.01795-.12562-.03589-.14356-.07178-.01794-.03589.01794-.08973,0-.12562,0-.01795-.12562-.05383-.14356-.07178-.08973-.10767-.16151-.25123-.26918-.26918-.07179,0-.03589-.05383-.07179-.07178-.21534-.07178-.59219-.08973-.82547-.07178-.05383,0-.05383.05383-.07179.07178-.23327.07178-.23327.05383-.34095.14356"/>
      <path class="d" d="M188.08306,32.68374h1.45356c.14356.23329-.34096.3589-.41274.59219v3.35575c0,.41274-.07178.87931,0,1.1126.07178.28712.25123.25123.41274.46658.03589.05383.08973.12562,0,.12562h-1.38178c-.3589-.01795.28712-.30507.26918-.46658v-3.49931c0-.41274.07178-.86137,0-1.1126-.05384-.1974-.1974-.28712-.26918-.3948-.05384-.03589-.21534-.05384-.07178-.17945"/>
      <path class="d" d="M209.58141,32.88114c-.10767.32301-.3589.48452-.48452.78959-.30507-.08973-.43068-.34096-.62808-.52041-.05384-.03589-.23329.03589-.26918,0-.08973-.08973-.08973-.01795-.21534,0-.21534.03589-.46658.05383-.62808.26918-.01795.01795.01795.10767,0,.12562-.07178.05383,0,.1974-.07178.26918-.07178.05383-.05384.07178,0,.26918.05384.16151.08973.25123.21534.3948.23329.26918.61014.52041.96904.78959.05384.03589.08973.10767.14356.12562.10767.07178.25123.10767.34096.1974.14356.12562.26918.30507.41274.46658.07178.08973.08973.08973.14356.26918.01795.07178.12562.62808.07178.91521,0,0-.05384.03589-.07178.07178-.03589.10767,0,.17945-.07178.32301-.01795.03589-.12562.03589-.14356.07178-.01795.03589.01795.10767,0,.12562-.03589.03589-.1974.1974-.26918.26918-.05384.05383-.14356.01795-.21534.07178-.08973.07178-.05384.08973-.21534.12562,0,0-.1974.05383-.21534.07178v.07178c-.64603.12562-1.29205-.14356-2.00986-.26918.05384-.3589.34096-.52041.41274-.86137.10767-.01795.23329.07178.26918.12562.01795.01795-.01795.10767,0,.12562.08973.07178.30507.34096.48452.3948.05384.01795.23329-.03589.26918,0v.07178c.28712.01795.78959-.16151.89726-.32301.01795-.01795-.01795-.10767,0-.12562h.07178c.01795-.01795-.01795-.10767,0-.12562h.07178c.03589-.16151.03589-.50246,0-.66397-.05384-.26918-.30507-.50246-.5563-.66397-.03589-.01795.01795-.05383-.07178-.07178-.12562,0-.14356-.1974-.26918-.1974-.10767,0-.16151-.16151-.26918-.26918-.05384-.05383-.16151-.01795-.21534-.07178-.03589-.03589-.03589-.10767-.07178-.12562-.05384-.05383-.16151-.01795-.21534-.07178-.03589-.03589-.03589-.10767-.07178-.12562-.07178-.07178-.21534-.12562-.26918-.1974-.03589-.05383-.03589-.14356-.07178-.1974-.01795-.03589-.12562-.10767-.14356-.12562-.10767-.28712-.05384-.57425-.07178-.98699.14356.01795.05384-.1974.14356-.26918.03589-.03589.1974-.17945.21534-.26918,0-.07178.17945-.16151.34096-.26918.03589-.01795.10767-.12562.14356-.12562.03589-.01795.08973.01795.14356,0,.5563-.12562,1.50739-.01795,2.04575.12562"/>
      <path class="d" d="M210.90935,32.68374h1.45356c.14356.23329-.34096.3589-.41274.59219v3.35575c0,.41274-.07178.87931,0,1.1126.07178.28712.25123.25123.41274.46658.03589.05383.08973.12562,0,.12562h-1.38178c-.3589-.01795.28712-.30507.26918-.46658v-3.49931c0-.41274.07178-.86137,0-1.1126-.05384-.1974-.1974-.28712-.26918-.3948-.03589-.03589-.1974-.05384-.07178-.17945"/>
      <path class="d" d="M251.23222,32.88114c-.10767.32301-.3589.48452-.48452.78959-.30507-.08973-.43068-.34096-.62808-.52041-.05383-.03589-.23329.03589-.26918,0-.08973-.08973-.08973-.01795-.21534,0-.21534.03589-.46658.05383-.62808.26918-.01795.01795.01795.10767,0,.12562-.07178.05383,0,.1974-.07178.26918-.07178.05383-.05383.07178,0,.26918.05383.16151.08973.25123.21534.3948.23329.26918.61014.52041.96904.78959.05383.03589.08973.10767.14356.12562.10767.07178.25123.10767.34096.1974.14356.12562.26918.30507.41274.46658.07178.08973.08973.08973.14356.26918.01795.07178.12562.62808.07178.91521,0,0-.05383.03589-.07178.07178-.03589.10767,0,.17945-.07178.32301-.01795.03589-.12562.03589-.14356.07178-.01795.03589.01795.10767,0,.12562l-.26918.26918c-.05383.05383-.14356.01795-.21534.07178-.08973.07178-.05383.08973-.21534.12562,0,0-.1974.05383-.21534.07178v.07178c-.64603.12562-1.29206-.14356-2.00986-.26918.05383-.3589.34096-.52041.41274-.86137.10767-.01795.23329.07178.26918.12562.01795.01795-.01795.10767,0,.12562.08973.07178.30507.34096.48452.3948.05383.01795.23329-.03589.26918,0v.07178c.28712.01795.78959-.16151.89726-.32301.01795-.01795-.01795-.10767,0-.12562h.07178c.01795-.01795-.01795-.10767,0-.12562h.07178c.03589-.16151.03589-.50246,0-.66397-.05383-.26918-.30507-.50246-.5563-.66397-.03589-.01795.01795-.05383-.07178-.07178-.12562,0-.14356-.1974-.26918-.1974-.10767,0-.16151-.16151-.26918-.26918-.05383-.05383-.16151-.01795-.21534-.07178-.03589-.03589-.03589-.10767-.07178-.12562-.05383-.05383-.16151-.01795-.21534-.07178-.03589-.03589-.03589-.10767-.07178-.12562-.07178-.07178-.21534-.12562-.26918-.1974-.05383-.05383-.03589-.14356-.07178-.1974-.01795-.03589-.12562-.10767-.14356-.12562-.10767-.28712-.05383-.57425-.07178-.98699.14356.01795.05383-.1974.14356-.26918.03589-.03589.1974-.17945.21534-.26918,0-.07178.17945-.16151.34096-.26918.03589-.01795.10767-.12562.14356-.12562.03589-.01795.08973.01795.14356,0,.53838-.12562,1.50742-.01795,2.04577.12562"/>
      <path class="d" d="M252.48838,32.68374h1.45356c.10767.26918-.26918.26918-.34096.59219-.12562.48452.08973,1.20233,0,1.77657.12562.12562.37685.05383.5563.07178h1.8663c-.10767-.59219.14356-1.29206,0-1.77657-.05383-.21534-.17945-.21534-.26918-.32301-.08973-.08973-.23329-.17945-.14356-.32301h1.45356c.14356.1974-.26918.30507-.34096.59219-.12562.44863,0,1.39972,0,2.29698s-.10767,1.83041,0,2.24315c.03589.14356.12562.23329.21534.32301.03589.03589.26918.08973.14356.1974h-1.38178c-.3589-.01795.34096-.3589.34096-.52041v-2.24315h-2.38671c-.12562.10767-.07178.34096-.07178.52041,0,.3948-.10767,1.31,0,1.72274.05383.16151.10767.23329.21534.32301.03589.03589.26918.08973.14356.1974h-1.38178c-.17945,0-.08973-.05383-.07178-.12562.16151-.10767.30507-.23329.41274-.3948v-3.35575c0-.41274.07178-.86137,0-1.1126-.05383-.21534-.25123-.32301-.34096-.46658-.05383-.07177-.21534-.10766-.07178-.21533"/>
      <path class="d" d="M258.44619,32.68374h1.45356c.14356.23329-.34096.3589-.41274.59219v3.35575c0,.41274-.07178.87931,0,1.1126.07178.28712.25123.25123.41274.46658.03589.05383.08973.12562,0,.12562h-1.38178c-.3589-.01795.28712-.30507.26918-.46658v-3.49931c0-.41274.07178-.86137,0-1.1126-.05383-.1974-.1974-.28712-.26918-.3948-.03589-.03589-.1974-.05384-.07178-.17945"/>
      <path class="d" d="M271.15139,32.95292v.91521c0,.26918-.17945-.03589-.21534-.07178-.19739-.16151-.52042-.59219-.82547-.66397-.23329-.05383-.66397-.01795-.82547.07178-.01794.01795-.12562-.01795-.14356,0-.08973.10767-.12562.10767-.26918.1974-.03589.01795.01794.05383-.07179.07178-.07179,0-.12562.08973-.21534.1974-.07179.08973-.12562.14356-.21534.26918-.01794.03589-.05383.05383-.07179.07178-.03589.05383-.12562.16151-.14356.26918,0,.12562-.25124.5563-.26918.78959-.08973.5563.01794,1.36384.21534,1.77657.01794.03589.07179,0,.07179.07178,0,.08973.12562.14356.14356.26918,0,.05383.10767.14356.14356.1974.10767.16151.28712.28712.48452.3948.03589.01795.10767.12562.14356.12562.26918.08973.82547.12562,1.1126.07178.23329-.05383.34096-.23329.5563-.32301-.08973-.59219.17945-1.54329-.14356-1.90219-.05383-.07178-.19739-.14356-.26918-.1974-.03589-.05383-.08973-.12562,0-.12562h1.38178c.30507.01795-.05383.17945-.07179.1974-.08973.10767-.17945.17945-.21534.32301-.14356.57425.10767,1.48945,0,2.09959-.14356-.01795-.19739.1974-.34096.1974h-.07179c-.30507.12562-1.04082.26918-1.6689.1974-.07179,0-.23329-.03589-.34096-.07178-.08973-.01795-.28712-.07178-.41274-.12562-.03589-.01795,0-.05383-.07179-.07178-.08973,0-.08973-.10767-.14356-.12562-.12562-.05383-.19739-.05383-.34096-.1974-.05383-.05383-.16151-.14356-.21534-.1974-.05383-.05383-.14356-.12562-.21534-.1974-.01794-.01795.01794-.10767,0-.12562s-.12562-.05383-.14356-.07178.01794-.10767,0-.12562h-.07179c-.01794-.01795.01794-.10767,0-.12562h-.07179c-.08973-.17945-.14356-.41274-.21534-.59219-.07179-.25123-.12562-.86137-.07179-1.31.03589-.23329.14356-.57425.26918-.86137.01794-.03589.07179,0,.07179-.07178,0-.08973.12562-.14356.14356-.26918,0-.10767.19739-.12562.21534-.26918,0-.16151.62808-.5563.82547-.66397.41274-.1974.9152-.3589,1.6689-.26918.32306.01795.59223.16151.91524.25124"/>
      <path class="d" d="M176.05977,32.80935c-.01795-.05383.01795-.05383.07178-.07178h1.45356c.17945,0,.08973.05383.07178.12562-.30507.25123-.34096.21534-.41274.46658s0,1.05877,0,1.77657c0,.77164-.01795,1.47151.07178,1.84835.03589.12562.01795.1974.07178.32301.08973.21534.21534.30507.41274.46658.03589.01795.10767.12562.14356.12562.01795.01795.12562-.01795.14356,0,.07178.08973.14356.03589.26918.07178.07178.01795.10767.07178.21534.07178.16151,0,.43068-.08973.62808-.1974.07178-.03589.26918-.16151.34096-.26918.01794-.01795-.01794-.10767,0-.12562h.07178c.01794-.01795-.01794-.10767,0-.12562.05384-.03589.05384-.05383.07178-.12562.07178-.30507.07178-1.13055.07178-1.90219,0-.71781.16151-1.83041-.14356-2.17137-.03589-.05383-.16151-.10767-.26918-.1974-.03589-.05383-.08973-.12562,0-.12562h1.32795c.26918-.03589,0,.17945-.07178.26918-.10767.12562-.21534.12562-.26918.32301-.07178.25123,0,.64603,0,.98699v.98699c0,.73575.08973,1.59712-.07178,2.11753,0,0-.05384.01795-.07178.07178-.01794.03589.01794.08973,0,.12562s-.12562.03589-.14356.07178c-.01794.03589.01794.10767,0,.12562-.05384.05383-.1974.12562-.26918.1974-.03589.01795-.03589.10767-.07178.12562-.01794.01795-.12562-.01795-.14356,0-.10767.12562-.25123.17945-.48452.26918-.01795.01795-.12562-.01795-.14356,0v.07178c-.30507.05383-.91521.03589-1.25616-.07178,0,0-.01795-.05383-.07178-.07178-.12562-.03589-.14356-.05383-.26918-.12562-.07178-.03589-.25123-.17945-.34096-.26918-.03589-.03589-.16151-.12562-.21534-.1974-.01795-.01795.01795-.10767,0-.12562h-.07178c-.01795-.01795.01795-.10767,0-.12562-.05384-.03589-.05384-.05383-.07178-.12562-.16151-.59219-.07178-2.08164-.07178-3.03274,0-.32301.07178-.73575,0-.98699-.08973-.32299-.23329-.34094-.50247-.57423"/>
      <path class="d" d="M181.96374,32.80935c-.01794-.05383.01794-.05383.07178-.07178h1.1126c.44863.66397.87932,1.31,1.32795,1.97397.21534.32301.41274.66397.62808.98699.01794.03589.07178-.01795.07178.07178,0,0,.05384.17945.07178.1974.03589.07178.16151.12562.21534.1974.10767.16151.1974.34096.26918.52041.12562-.07178.07178-.25123.07178-.3948v-1.25616c0-.61014.10767-1.32794,0-1.70479-.08973-.28712-.25123-.25123-.41274-.46658-.05384-.05383-.08973-.12562,0-.12562h1.31c.3589.01795-.34096.3589-.34096.52041v5.41946c-.14356.01795-.21534-.17945-.26918-.26918-.14356-.21534-.25123-.41274-.41274-.66397-.03589-.05383-.10767-.08973-.14356-.12562-.01794-.01795.01794-.10767,0-.12562-.01794,0-.07178.01795-.07178,0-.03589-.05383-.03589-.12562-.07178-.1974-.03589-.05383-.10767-.08973-.14356-.12562-.03589-.05383-.03589-.14356-.07178-.1974-.01794-.03589-.12562-.03589-.14356-.07178-.05384-.07178-.03589-.14356-.07178-.1974-.05384-.10767-.12562-.17945-.21534-.32301-.01794-.03589-.07178,0-.07178-.07178,0-.05383-.10767-.14356-.14356-.1974-.07178-.12562-.16151-.28712-.26918-.46658-.01794-.03589-.12562-.08973-.14356-.12562-.03589-.07178-.01794-.12562-.07178-.1974-.03589-.05383-.10767-.08973-.14356-.12562-.07178-.08973-.17945-.30507-.26918-.46658-.03589-.05383-.10767-.08973-.14356-.12562-.01794-.01795.01794-.10767,0-.12562-.07178-.05383-.08973-.12562-.14356-.1974-.03589-.03589-.10767-.08973-.14356-.12562-.05384-.10767-.12562-.21534-.14356-.32301-.12562.08973-.07178.30507-.07178.46658-.01794.71781,0,1.6689,0,2.51233,0,.37685-.07178.77164,0,.98699.07178.28712.25123.25123.41274.46658.03589.05383.08973.12562,0,.12562h-1.31c-.17945,0-.08973-.05383-.07178-.12562.16151-.10767.30507-.23329.41274-.3948v-3.35575c0-.41274.07178-.87931,0-1.1126-.05383-.30504-.28712-.46655-.46657-.59217"/>
      <path class="d" d="M190.64922,32.80935c-.01794-.05383.01794-.05383.07178-.07178h1.45356c.3589.01795-.28712.30507-.26918.46658.37685,1.20233.78959,2.36877,1.1126,3.62493.23329,0,.16151-.26918.21534-.3948,0-.01795.07178,0,.07178-.07178v-.07178c.03589-.07178.01794-.14356.07178-.32301,0-.01795.07178,0,.07178-.07178v-.07178c.01794-.07178.03589-.10767.07178-.1974.01794-.05383.03589-.16151.07178-.26918.01794-.05383.05384-.10767.07178-.1974.05384-.21534.25123-.69986.34096-.98699.05384-.16151.08973-.30507.14356-.46658s.14356-.3589.14356-.3948c-.03589-.34096-.17945-.25123-.34096-.46658-.03589-.05383-.08973-.12562,0-.12562h1.25616c.25123,0-.03589.21534-.07178.26918-.10767.12562-.23329.16151-.26918.26918-.10767.17945-.12562.44863-.21534.71781-.03589.08973-.10767.21534-.14356.32301-.05384.14356-.10767.28712-.14356.3948-.03589.16151-.16151.46658-.21534.66397-.03589.12562-.07178.25123-.14356.3948-.01794.01795.01794.12562,0,.12562h-.07178c-.03589.10767-.03589.26918-.07178.3948,0,0-.07178.25123-.07178.26918-.07178.05383-.16151.37685-.21534.52041,0,.01795.01794.12562,0,.12562-.07178.05383-.07178.1974-.14356.3948,0,.01795-.07178,0-.07178.07178,0,.08973-.03589.12562-.07178.1974-.08973.17945-.05384.5563-.41274.46658-.25123.12562-.05384-.1974-.14356-.26918-.12562-.10767-.26918-.66397-.34096-.91521-.12562-.41274-.26918-.82548-.41274-1.25616-.03589-.12562-.01794-.25123-.07178-.3948-.01794-.01795-.07178,0-.07178-.07178,0-.10767-.03589-.12562-.07178-.1974-.05384-.14356-.07178-.30507-.14356-.46658-.01794-.01795.01794-.10767,0-.12562-.05384-.03589-.08973-.14356-.14356-.32301-.05384-.1974-.14356-.3948-.21534-.59219-.03589-.10767-.03589-.26918-.07178-.32301-.10767-.21536-.32301-.43069-.53835-.57426"/>
      <path class="d" d="M196.26607,32.80935c-.01794-.05383.01794-.05383.07178-.07178h3.46342v.86137c0,.16151-.05384.07178-.14356.07178-.12562-.17945-.28712-.34096-.48452-.46658h-1.6689c-.12562.10767-.07178.32301-.07178.46658v1.38178c.05384.14356.39479.01795.5563.07178.25123-.01795.44863.03589.62808,0s.25123-.10767.34096-.1974c.05384-.05383.10767-.26918.21534-.12562v1.1126c-.01795.34096-.37685-.32301-.5563-.32301h-1.18438v2.29698c.52041-.08973,1.22027.12562,1.6689,0,.30507-.07178.39479-.28712.5563-.46658.05384-.03589.12562-.07178.14356,0v.91521h-3.39164c-.17945,0-.08973-.05383-.07178-.12562.16151-.10767.30507-.23329.41274-.3948v-3.35575c0-.41274.07178-.87931,0-1.1126-.07178-.25122-.32301-.41273-.48452-.53835"/>
      <path class="d" d="M200.98566,32.80935c-.01795-.05383.01795-.05383.07178-.07178.7537.05383,1.5074-.08973,2.15342,0,.12562.01795.39479.07178.48452.12562.05384.03589.16151.07178.26918.12562.07178.03589.08973.08973.14356.12562.03589.03589.17945.03589.21534.07178.01795.01795-.01795.10767,0,.12562s.12562.03589.14356.07178c.07178.08973.25123.41274.26918.59219.08973.69986-.32301,1.32794-1.04082,1.57918.21534.46658.50247.93315.77164,1.38178.25123.44863.44863.96904.89726,1.25616.03589.05383.08973.12562,0,.12562h-.96904c-.44863-.86137-.9511-1.68685-1.38178-2.56616h-.82548c.10767.59219-.14356,1.52534,0,2.04575.05384.17945.12562.23329.21534.32301.03589.03589.26918.08973.14356.1974h-1.38178c-.17945,0-.08973-.05383-.07178-.12562.16151-.10767.30507-.23329.41274-.3948v-3.35575c0-.41274.07178-.87931,0-1.1126-.10767-.23329-.35891-.39479-.52041-.52041M202.17004,35.32168c.39479.01795.7537,0,.96904-.07178.28712-.07178.32301-.16151.48452-.32301.05384-.05383.08973-.07178.14356-.12562.12562-.14356.12562-.17945.14356-.3948,0-.03589.07178-.07178.07178-.07178,0-.10767-.05384-.12562-.07178-.1974-.01795-.12562.01795-.1974-.07178-.26918-.01795-.01795.01795-.10767,0-.12562-.01795-.03589-.10767-.08973-.14356-.12562-.14356-.1974-.25123-.32301-.41274-.32301-.07178,0-.05384-.05383-.07178-.07178-.21534-.05383-.86137.03589-1.04082,0v2.09959Z"/>
      <path class="d" d="M213.47552,32.75552h4.23507v.98699c-.34096-.07178-.41274-.3948-.69986-.52041h-1.1126v3.42753c0,.41274-.07178.87931,0,1.1126.05384.1974.16151.1974.26918.32301.03589.03589.26918.23329.14356.26918h-1.38178c-.3589-.01795.28712-.30507.26918-.46658v-4.61192c-.03589-.14356-.34096-.01795-.48452-.07178-.21534.01795-.3589-.01795-.48452,0-.3589.07178-.41274.44863-.77164.52041v-.96904h.01794Z"/>
      <path class="d" d="M218.53606,32.80935c-.01795-.05383.01795-.05383.07178-.07178h1.45356c.3589.01795-.28712.30507-.26918.46658.3589.62808.7537,1.22027,1.04082,1.90219.26918.01795.25123-.30507.34096-.46658.01795-.03589.07178,0,.07178-.07178,0-.08973.10767-.08973.14356-.12562.05383-.08973.01795-.17945.07178-.26918.01795-.03589.07178.01795.07178-.07178s.10767-.08973.14356-.12562c.01795-.01795-.01795-.10767,0-.12562h.07178c.01795-.01795-.01795-.10767,0-.12562h.07178c.01795-.01795-.01795-.10767,0-.12562h.07178c.01795-.01795-.01795-.10767,0-.12562.03589-.01795.14356-.10767.21534-.1974,0-.12562-.10767-.21534-.21534-.32301-.05383-.07178-.28712-.12562-.14356-.1974h1.25616c.12562-.01795.14356.05383.07178.07178-.16151.1974-.34096.34096-.48452.59219-.12562.21534-.32301.50246-.48452.78959-.08973.17945-.17945.28712-.26918.46658-.03589.05383-.03589.12562-.07178.1974-.03589.05383-.10767.08973-.14356.12562-.12562.16151-.25123.50246-.41274.71781.10767.61014-.14356,1.56123,0,2.11753.05383.16151.10767.23329.21534.32301.03589.03589.26918.08973.14356.1974h-1.38178c-.3589-.01795.34096-.3589.34096-.52041-.08973-.7537.12562-1.38178,0-1.97397-.03589-.16151-.21534-.44863-.34096-.66397-.23329-.3948-.44863-.77164-.69986-1.18438-.03589-.07178-.10767-.08973-.14356-.12562-.01795-.01795.01795-.10767,0-.12562-.03589-.03589-.14356-.23329-.21534-.32301-.17944-.25122-.34094-.4845-.59218-.62807"/>
      <path class="d" d="M233.12551,33.00675c.03589.25123-.17945.26918-.21534.46658-.37685,0-.41274-.30507-.77164-.32301-.23329-.01795-.30507.23329-.41274.3948-.03589.07178-.03589.10767-.07178.1974-.01795.05383-.05383.03589-.07178.07178-.10767.28712-.08973.69986-.21534.98699.16151.17945.73575-.03589.89726.12562-.07178.32301-.48452.32301-.89726.32301-.1974.07178-.07178.25123-.14356.46658-.08973.25123-.21534.87931-.26918,1.25616-.03589.17945-.01795.3948-.07178.59219,0,.01795-.07178.01795-.07178.07178,0,.01795.01795.17945,0,.1974-.07178.05383,0,.1974-.07178.26918h-.07178c-.01795.05383.03589.23329,0,.26918-.14356.14356-.1974.71781-.41274.91521l-.07178.07178c-.05383.07178-.01795.17945-.07178.26918-.08973.10767-.34096.26918-.48452.3948-.07178.07178-.14356.21534-.21534.26918-.01795.01795-.12562-.01795-.14356,0v.07178c-.01795.01795-.12562-.01795-.14356,0-.08973.10767-.62808.10767-.77164-.07178s-.10767-.3589.14356-.59219c.21534-.03589.62808.41274.96904.12562.03589-.03589.07178,0,.07178-.07178,0-.08973.10767-.08973.14356-.12562.01795-.05383,0-.34096.07178-.3948.07178-.05383,0-.1974.07178-.26918h.07178c.03589-.14356,0-.32301.07178-.52041.01795-.07178.10767-.46658.14356-.66397.17945-.96904.3589-1.83041.41274-2.44055-.07178-.14356-.43068-.01795-.62808-.07178-.01795-.3948.3589-.41274.77164-.3948.03589-.30507.17945-.73575.34096-1.05877.03589-.07178.14356-.12562.14356-.1974,0-.08973.21534-.21534.34096-.32301.25123-.25123.43068-.52041.96904-.52041.25124-.01795.52042-.0359.66398.23328"/>
      <path class="d" d="M234.65085,32.80935c-.01795-.05383.01795-.05383.07178-.07178h1.45356c.3589.01795-.28712.30507-.26918.46658.41274,1.20233.7537,2.49438,1.18438,3.69671.17945-.21534.17945-.5563.26918-.86137,0-.01795.07178,0,.07178-.07178v-.07178c.01795-.07178.03589-.10767.07178-.1974.01795-.05383.07178-.05383.07178-.07178.03589-.14356.01795-.30507.07178-.46658,0-.01795.07178,0,.07178-.07178v-.07178c.01795-.07178.03589-.10767.07178-.1974.01795-.08973.16151-.43068.21534-.59219.03589-.16151.07178-.28712.14356-.52041.08973-.32301-.03589-.61014-.34096-.86137-.05383-.01795-.07178-.07178-.14356-.07178-.01795-.05383.01795-.05383.07178-.07178h1.45356c.3589.01795-.28712.30507-.26918.46658.3589,1.23822.78959,2.40466,1.1126,3.69671.23329-.17945.25123-.53836.34096-.86137.03589-.08973.10767-.21534.14356-.32301.05383-.17945.07178-.3589.14356-.59219,0-.01795.07178,0,.07178-.07178v-.07178c.01795-.07178.03589-.10767.07178-.1974.01795-.05383.03589-.16151.07178-.26918.01795-.05383.05383-.10767.07178-.1974.03589-.16151.1974-.5563.26918-.78959.01795-.05383.07178-.14356.07178-.1974-.03589-.34096-.17945-.25123-.34096-.46658-.03589-.05383-.08973-.12562,0-.12562h1.25616c.32301,0-.28712.3948-.34096.46658-.17945.77164-.50246,1.59712-.77164,2.36877-.08973.26918-.16151.57425-.26918.86137-.01795.01795.01795.12562,0,.12562-.07178.05383-.16151.3589-.21534.52041,0,.01795.01795.12562,0,.12562-.07178.05383-.07178.17945-.14356.3948,0,.01795-.07178,0-.07178.07178,0,.08973-.03589.12562-.07178.1974-.07178.17945-.05383.5563-.41274.46658-.23329,0-.14356-.26918-.21534-.46658,0-.01795-.07178,0-.07178-.07178v-.07178c-.07178-.17945-.17945-.5563-.26918-.86137-.03589-.08973-.10767-.21534-.14356-.32301-.16151-.62808-.46658-1.39972-.62808-2.09959-.16151.01795-.16151.26918-.21534.3948-.03589.08973-.14356.37685-.21534.59219-.05383.17945-.08973.3589-.14356.52041,0,.01795-.07178,0-.07178.07178v.07178c-.03589.07178-.03589.14356-.07178.26918-.01795.05383-.07178.05383-.07178.07178-.05383.17945-.07178.3948-.14356.59219,0,.01795-.07178,0-.07178.07178v.07178c-.07178.17945-.14356.5563-.26918.86137-.05383.12562-.07178.41274-.34096.32301-.23329.03589-.21534-.25123-.26918-.3948-.01795-.01795.01795-.12562,0-.12562-.07178-.05383-.07178-.1974-.14356-.3948,0-.01795-.07178,0-.07178-.07178,0-.01795.01795-.17945,0-.1974-.07178-.05383-.07178-.1974-.14356-.3948,0-.01795-.07178,0-.07178-.07178,0-.10767-.03589-.12562-.07178-.1974-.03589-.12562-.03589-.28712-.07178-.3948,0-.01795-.07178,0-.07178-.07178,0-.10767-.03589-.10767-.07178-.1974-.23329-.69986-.41274-1.45356-.69986-2.17137,0-.01795.01795-.12562,0-.12562-.05383-.03589-.07178-.21534-.14356-.32301-.10769-.14356-.30509-.26918-.48454-.37686"/>
      <path class="d" d="M244.84372,32.75552c.07178.23329.21534.50246.26918.71781.03589.12562.07178.25123.14356.3948.01795.01795-.01795.12562,0,.12562.08973.07178.21534.48452.26918.66397.03589.10767.10767.21534.14356.32301.05383.14356.10767.26918.14356.3948.03589.12562.07178.25123.14356.3948.01795.01795-.01795.12562,0,.12562.08973.07178.21534.48452.26918.66397.08973.26918.17945.53836.26918.78959.01795.01795-.01795.12562,0,.12562.05383.05383.07178.1974.14356.32301.10767.17945.28712.23329.41274.3948.05383.05383.08973.12562,0,.12562h-1.45356c-.3589-.01795.28712-.30507.26918-.46658-.08973-.3948-.28712-.69986-.34096-1.1126h-1.8663c-.21534.07178-.14356.37685-.26918.52041-.05383.17945-.08973.3948-.21534.52041,0,.12562.10767.21534.21534.32301.05383.07178.28712.12562.14356.1974h-1.38178c.10767-.1974.34096-.25123.48452-.3948.59219-1.75863,1.23822-3.48137,1.8663-5.20411h.34097v.05383ZM244.43099,34.38854v.07178c0,.07178-.05383.03589-.07178.07178-.08973.21534-.16151.48452-.21534.59219v.07178c0,.07178-.05383.03589-.07178.07178-.07178.17945-.08973.3589-.14356.52041-.05383.17945-.12562.3589-.21534.52041h1.59712c-.17945-.7537-.48452-1.38178-.69986-2.11753-.01795-.05383-.05383-.07178-.14356-.07178.05383.14356,0,.21534-.03589.26918"/>
      <path class="d" d="M261.22769,32.80935c-.01795-.05383.01795-.05383.07178-.07178h1.1126c.44863.66397.87931,1.31,1.32794,1.97397.21534.32301.41274.66397.62808.98699.01795.03589.07178-.01795.07178.07178,0,0,.05383.17945.07178.1974.03589.07178.16151.12562.21534.1974.10767.16151.1974.34096.26918.52041.12562-.07178.07178-.25123.07178-.3948v-1.25616c0-.61014.10767-1.32794,0-1.70479-.08973-.28712-.25123-.25123-.41274-.46658-.03589-.05383-.08973-.12562,0-.12562h1.31c.3589.01795-.34096.3589-.34096.52041v5.41946c-.14356.01795-.21534-.17945-.26918-.26918-.14356-.21534-.25123-.41274-.41274-.66397-.03589-.05383-.10767-.08973-.14356-.12562-.01795-.01795.01795-.10767,0-.12562-.01795,0-.07178.01795-.07178,0-.03589-.05383-.03589-.12562-.07178-.1974-.01795-.05383-.10767-.08973-.14356-.12562-.03589-.05383-.03589-.14356-.07178-.1974-.01795-.03589-.12562-.03589-.14356-.07178-.05383-.07178-.03589-.14356-.07178-.1974-.05383-.10767-.12562-.17945-.21534-.32301-.01795-.03589-.07178,0-.07178-.07178,0-.05383-.10767-.14356-.14356-.1974-.07178-.12562-.16151-.28712-.26918-.46658-.01795-.03589-.12562-.08973-.14356-.12562-.03589-.07178-.01795-.12562-.07178-.1974-.03589-.05383-.10767-.08973-.14356-.12562-.07178-.08973-.17945-.30507-.26918-.46658-.03589-.05383-.10767-.08973-.14356-.12562-.01795-.01795.01795-.10767,0-.12562-.07178-.05383-.08973-.12562-.14356-.1974-.03589-.03589-.10767-.08973-.14356-.12562-.07178-.10767-.12562-.21534-.14356-.32301-.12562.08973-.07178.30507-.07178.46658-.01795.71781,0,1.6689,0,2.51233,0,.37685-.07178.77164,0,.98699.07178.28712.25123.25123.41274.46658.03589.05383.08973.12562,0,.12562h-1.29208c-.17945,0-.08973-.05383-.07178-.12562.16151-.10767.30507-.23329.41274-.3948v-3.35575c0-.41274.07178-.87931,0-1.1126-.07178-.30504-.32301-.46655-.48452-.59217"/>
      <path class="d" d="M272.40755,32.75552h4.21712v.98699c-.34096-.07178-.41274-.3948-.69987-.52041h-1.09465v3.42753c0,.41274-.07179.87931,0,1.1126.05383.1974.16151.1974.28712.32301.03589.03589.26918.23329.14356.26918h-1.38178c-.3589-.01795.28712-.30507.26918-.46658v-4.61192c-.03589-.14356-.34096-.01795-.48452-.07178-.21534.01795-.3589-.01795-.48452,0-.3589.07178-.41274.44863-.77164.52041v-.96904h.00001Z"/>
      <path class="d" d="M283.15673,32.80935c-.01794-.05383.01794-.05383.07179-.07178h1.1126c.44863.66397.87932,1.31,1.32795,1.97397.21534.32301.41274.66397.62808.98699.01794.03589.07179-.01795.07179.07178,0,0,.05383.17945.07179.1974.03589.07178.16151.12562.21534.1974.10767.16151.19739.34096.28712.52041.12562-.07178.07179-.25123.07179-.3948v-1.25616c0-.61014.10767-1.32794,0-1.70479-.08973-.28712-.25124-.25123-.41274-.46658-.03589-.05383-.08973-.12562,0-.12562h1.32795c.3589.01795-.34096.3589-.34096.52041v5.41946c-.14356.01795-.21534-.17945-.26918-.26918-.14356-.21534-.25124-.41274-.41274-.66397-.03589-.05383-.10767-.08973-.14356-.12562-.01794-.01795.01794-.10767,0-.12562-.01794,0-.07179.01795-.07179,0-.03589-.05383-.03589-.12562-.07179-.1974-.01794-.05383-.10767-.08973-.14356-.12562-.03589-.05383-.03589-.14356-.07179-.1974-.01794-.03589-.12562-.03589-.14356-.07178-.05383-.07178-.03589-.14356-.07179-.1974-.05383-.10767-.12562-.17945-.21534-.32301-.01794-.03589-.07179,0-.07179-.07178,0-.05383-.10767-.14356-.14356-.1974-.07179-.12562-.16151-.28712-.26918-.46658-.03589-.03589-.12562-.08973-.14356-.12562-.03589-.07178-.01794-.12562-.07179-.1974-.03589-.05383-.10767-.08973-.14356-.12562-.07179-.08973-.17945-.30507-.26918-.46658-.03589-.05383-.10767-.08973-.14356-.12562-.01794-.01795.01794-.10767,0-.12562-.07179-.05383-.08973-.12562-.14356-.1974-.03589-.03589-.10767-.08973-.14356-.12562-.07179-.10767-.12562-.21534-.14356-.32301-.12562.08973-.07179.30507-.07179.46658-.01794.71781,0,1.6689,0,2.51233,0,.37685-.07179.77164,0,.98699.08973.28712.25124.25123.41274.46658.03589.05383.08973.12562,0,.12562h-1.31c-.17945,0-.08973-.05383-.07179-.12562.16151-.10767.30507-.23329.41274-.3948v-3.35575c0-.41274.07179-.87931,0-1.1126-.08974-.30504-.34097-.46655-.50247-.59217"/>
      <path class="d" d="M227.41893,34.85511s.01795-.05383.07178-.07178c.23329-.03589.64603,0,.82548.07178.08973.03589.26918.08973.34096.1974.05383.05383.01795.12562.07178.1974.03589.05383.10767.05383.14356.12562.08973.16151.14356.78959.07178,1.18438,0,0-.07178.01795-.07178.07178,0,.14356-.03589.16151-.07178.26918-.01795.08973-.01795.12562-.07178.1974-.03589.05383-.07178.16151-.14356.26918-.14356.25123-.32301.41274-.5563.59219-.41274.32301-1.13055.68192-1.81247.3948-.03589-.01795,0-.05383-.07178-.07178h-.07178c-.41274-.32301-.52041-1.09466-.41274-1.65096,0,0,.07178-.01795.07178-.07178,0-.01795-.01795-.17945,0-.1974.03589-.03589.26918-.43068.26918-.52041s.10767-.08973.14356-.12562c.01795-.03589-.01795-.10767,0-.12562.03589-.03589.3948-.3948.48452-.3948.05383,0,.16151-.10767.21534-.12562.16151-.08973.32301-.16151.57424-.21534M227.07798,38.08525c.32301.01795.59219-.26918.77164-.52041.23329-.37685.46658-1.29206.34096-1.65096-.07178-.21534,0-.43068-.07178-.52041.01795.01795-.14356-.16151-.21534-.1974-.01795-.01795-.12562.01795-.14356,0-.12562-.14356-.43068-.03589-.48452,0-.07178.03589-.14356.01795-.21534.07178-.05383.03589-.21534.28712-.34096.52041-.17945.34096-.25123.64603-.26918,1.05877-.01795.32301-.03589.32301,0,.46658.01795.03589,0,.08973,0,.12562.05383.28712.14356.43068.26918.59219.21535-.03589.21535.05384.35891.05384"/>
    </g>
  </g>
</svg>